<svg width="48" height="48" viewBox="0 0 48 48" fill="none" xmlns="http://www.w3.org/2000/svg">
<path opacity="0.4" d="M32.38 4H15.64C8.36001 4 4.02002 8.33999 4.02002 15.62V32.36C4.02002 39.64 8.36001 43.98 15.64 43.98H32.38C39.66 43.98 44 39.64 44 32.36V15.62C44 8.33999 39.66 4 32.38 4Z" fill="#292D32"/>
<path d="M38.7 16.5399C38.62 16.3599 38.5201 16.1999 38.3801 16.0599L34.7801 12.4599C34.2001 11.8799 33.2401 11.8799 32.6601 12.4599C32.0801 13.0399 32.0801 13.9999 32.6601 14.5799L33.7 15.6199H33.4001C29.5001 15.6199 26.1201 17.7599 24.2601 20.8999C22.4201 17.7599 19.0401 15.6199 15.1401 15.6199H14.2801L15.32 14.5799C15.9 13.9999 15.9 13.0399 15.32 12.4599C14.74 11.8799 13.78 11.8799 13.2 12.4599L9.60004 16.0599C9.02004 16.6399 9.02004 17.5999 9.60004 18.1799L13.2 21.7799C13.5 22.0799 13.8801 22.2199 14.2601 22.2199C14.6401 22.2199 15.02 22.0799 15.32 21.7799C15.9 21.1999 15.9 20.2399 15.32 19.6599L14.2801 18.6199H15.1201C19.3201 18.6199 22.7401 22.0399 22.7401 26.2399V30.1599V34.4999C22.7401 35.3199 23.4201 35.9999 24.2401 35.9999C25.0601 35.9999 25.7401 35.3199 25.7401 34.4999V30.1599V26.2399C25.7401 22.0399 29.1601 18.6199 33.3801 18.6199H33.6801L32.6401 19.6599C32.0601 20.2399 32.0601 21.1999 32.6401 21.7799C32.9401 22.0799 33.32 22.2199 33.7 22.2199C34.08 22.2199 34.4601 22.0799 34.7601 21.7799L38.36 18.1799C38.5 18.0399 38.6001 17.8799 38.6801 17.6999C38.8601 17.3199 38.86 16.8999 38.7 16.5399Z" fill="#292D32"/>
</svg>
